<svg xmlns="http://www.w3.org/2000/svg" viewBox="0 0 2 900" width="2" height="900" role="img" aria-label="PAYSAFE plate">
<rect width="2" height="900" fill="#E8E6E2"/>
<g stroke="#0D0D0D" stroke-width="1" opacity="0.07"><line x1="53.5" y1="64" x2="53.5" y2="836"/><line x1="43.0" y1="64" x2="43.0" y2="836"/><line x1="32.5" y1="64" x2="32.5" y2="836"/><line x1="22.0" y1="64" x2="22.0" y2="836"/><line x1="11.5" y1="64" x2="11.5" y2="836"/><line x1="1.0" y1="64" x2="1.0" y2="836"/><line x1="-9.5" y1="64" x2="-9.5" y2="836"/><line x1="-20.0" y1="64" x2="-20.0" y2="836"/><line x1="-30.5" y1="64" x2="-30.5" y2="836"/><line x1="-41.0" y1="64" x2="-41.0" y2="836"/><line x1="-51.5" y1="64" x2="-51.5" y2="836"/></g>
<g stroke="#0D0D0D" stroke-width="1.2" opacity="0.55"><line x1="64" y1="64" x2="-62" y2="64"/><line x1="64" y1="836" x2="-62" y2="836"/><line x1="64" y1="156" x2="-62" y2="156"/></g>
<rect x="1" y="216" width="1" height="450" fill="none" stroke="#0D0D0D" stroke-width="1.4" opacity="0.75"/><g fill="#0D0D0D" opacity="0.5"><circle cx="1" cy="261" r="1.5"/><circle cx="1" cy="283" r="1.5"/><circle cx="1" cy="305" r="1.5"/><circle cx="1" cy="327" r="1.5"/><circle cx="1" cy="349" r="1.5"/><circle cx="1" cy="371" r="1.5"/><circle cx="1" cy="393" r="1.5"/><circle cx="1" cy="415" r="1.5"/><circle cx="1" cy="437" r="1.5"/><circle cx="1" cy="459" r="1.5"/><circle cx="1" cy="481" r="1.5"/><circle cx="1" cy="503" r="1.5"/><circle cx="1" cy="525" r="1.5"/><circle cx="1" cy="547" r="1.5"/><circle cx="1" cy="569" r="1.5"/><circle cx="1" cy="591" r="1.5"/><circle cx="1" cy="613" r="1.5"/></g>
<text x="64" y="122" font-family="Inter, 'Helvetica Neue', Helvetica, Arial, sans-serif" font-size="30" font-weight="500" letter-spacing="7" fill="#0D0D0D">PAYSAFE</text>
<text x="-62" y="122" text-anchor="end" font-family="Inter, 'Helvetica Neue', Helvetica, Arial, sans-serif" font-size="19" letter-spacing="4.5" fill="#0D0D0D" opacity="0.5">FINTECH PLATFORM</text>
<text x="64" y="802" font-family="Inter, 'Helvetica Neue', Helvetica, Arial, sans-serif" font-size="378" font-weight="400" letter-spacing="-16" fill="#0D0D0D">02</text>
<text x="-62" y="802" text-anchor="end" font-family="Inter, 'Helvetica Neue', Helvetica, Arial, sans-serif" font-size="19" letter-spacing="4.5" fill="#0D0D0D" opacity="0.5">RISK / ML</text>
</svg>